<?xml version="1.0" standalone="no"?>
<!DOCTYPE svg PUBLIC "-//W3C//DTD SVG 20010904//EN"
 "http://www.w3.org/TR/2001/REC-SVG-20010904/DTD/svg10.dtd">
<svg version="1.0" xmlns="http://www.w3.org/2000/svg"
 width="2268.000000pt" height="1201.000000pt" viewBox="0 0 2268.000000 1201.000000"
 preserveAspectRatio="xMidYMid meet">

<g transform="translate(0.000000,1201.000000) scale(0.100000,-0.100000)"
fill="#000000" stroke="none">
<path d="M10850 11993 c-206 -9 -641 -42 -649 -49 -2 -2 23 -196 54 -431 52
-386 57 -432 44 -458 -17 -36 -73 -75 -108 -75 -33 0 -86 32 -102 62 -7 13
-39 214 -70 447 -32 233 -60 425 -62 428 -5 5 -418 -54 -424 -61 -3 -3 26
-187 66 -409 39 -222 71 -421 71 -444 0 -112 -163 -153 -215 -54 -8 17 -48
217 -89 446 -41 229 -76 418 -78 420 -4 4 -435 -84 -521 -105 -36 -10 -46 -16
-43 -29 17 -52 166 -758 166 -782 0 -104 -129 -155 -199 -80 -23 25 -37 74
-109 407 -99 451 -90 416 -110 410 -264 -72 -359 -99 -365 -106 -7 -6 326
-1124 338 -1138 1 -2 87 20 189 48 699 191 1408 308 2131 350 94 5 210 10 259
10 l88 0 -6 308 c-3 169 -9 439 -12 600 l-6 292 -87 -2 c-47 -1 -115 -3 -151
-5z"/>
<path d="M11545 11614 c3 -214 8 -484 11 -600 l6 -211 191 -7 c773 -28 1566
-153 2330 -367 99 -28 180 -49 181 -47 6 8 376 1114 376 1124 0 6 -33 20 -72
31 -289 82 -371 103 -376 98 -3 -3 -43 -176 -88 -385 -46 -209 -91 -394 -99
-411 -16 -29 -66 -59 -101 -59 -31 0 -85 33 -99 61 -8 15 -15 42 -15 59 0 26
148 726 166 782 4 13 -12 20 -88 38 -136 32 -472 99 -477 95 -2 -2 -37 -192
-78 -422 -46 -258 -81 -429 -92 -448 -20 -36 -84 -62 -125 -51 -16 4 -41 20
-57 36 -23 22 -29 38 -29 72 0 24 32 224 71 446 40 221 69 405 66 408 -7 8
-418 66 -424 60 -4 -4 -37 -233 -89 -626 -14 -113 -32 -220 -40 -237 -18 -46
-69 -75 -118 -69 -47 5 -93 47 -101 90 -4 17 19 216 49 442 31 226 56 415 56
421 0 6 -35 13 -77 17 -191 18 -474 35 -661 42 l-203 7 6 -389z"/>
<path d="M7510 11338 c-91 -33 -181 -66 -200 -73 -20 -7 -34 -19 -32 -26 2 -8
83 -192 180 -409 194 -435 202 -462 153 -514 -37 -39 -88 -52 -133 -33 -20 9
-43 26 -51 39 -9 12 -95 203 -192 423 -98 220 -181 403 -184 408 -7 7 -376
-145 -393 -161 -4 -4 88 -185 204 -402 186 -347 212 -400 211 -439 0 -38 -5
-49 -36 -78 -28 -25 -46 -33 -74 -33 -77 0 -82 7 -312 438 -117 221 -218 402
-223 402 -12 0 -369 -178 -381 -190 -5 -4 77 -172 182 -371 204 -389 209 -404
171 -466 -38 -64 -145 -66 -188 -5 -11 15 -99 180 -197 367 -98 187 -181 344
-186 349 -6 7 -307 -159 -336 -188 -9 -8 60 -125 303 -506 173 -272 318 -498
322 -502 4 -4 27 6 52 21 93 58 374 213 552 305 340 176 779 367 1153 503 82
30 151 56 153 58 4 4 -339 1128 -347 1136 -3 4 -80 -20 -171 -53z"/>
<path d="M15026 11277 c-60 -171 -346 -1020 -346 -1028 0 -4 35 -19 78 -34
534 -190 1151 -477 1646 -765 141 -82 152 -87 167 -72 20 21 679 931 685 946
2 6 -33 33 -78 61 -210 125 -321 186 -328 178 -4 -4 -92 -170 -196 -367 -196
-373 -211 -396 -272 -396 -42 0 -90 27 -107 61 -31 59 -18 93 180 468 103 194
183 357 178 361 -12 12 -370 190 -381 190 -5 0 -106 -181 -223 -402 -230 -431
-235 -438 -312 -438 -29 0 -46 8 -75 34 -67 62 -66 66 170 506 114 212 208
391 210 398 4 16 -381 187 -392 175 -4 -4 -87 -188 -185 -408 -97 -220 -183
-411 -192 -423 -8 -13 -31 -30 -51 -39 -69 -29 -149 18 -159 94 -4 33 17 88
176 444 99 223 181 412 183 418 3 12 -33 28 -248 106 l-92 33 -36 -101z"/>
<path d="M11546 10768 c-6 -17 -36 -345 -36 -381 0 -22 13 -41 55 -78 32 -30
65 -73 82 -107 24 -49 28 -69 28 -147 0 -77 -4 -98 -26 -146 -33 -69 -91 -129
-161 -166 -48 -25 -63 -28 -153 -28 -118 0 -171 20 -245 95 -74 74 -95 127
-95 245 0 89 3 105 27 151 15 28 55 77 89 107 l62 56 -7 143 c-10 219 -14 238
-42 238 -29 0 -29 -5 -14 -213 l10 -138 -53 -49 c-248 -227 -131 -630 201
-692 168 -31 355 68 430 230 24 51 27 69 27 167 0 101 -2 115 -29 170 -17 33
-53 84 -82 112 l-52 53 18 186 c11 103 17 191 14 196 -8 13 -44 9 -48 -4z"/>
<path d="M8452 10362 c-16 -2 -21 -9 -18 -20 3 -9 26 -115 52 -234 34 -154 52
-218 62 -218 33 0 124 -55 169 -103 70 -74 96 -146 91 -252 -5 -101 -32 -161
-104 -232 -74 -72 -141 -96 -254 -91 -100 5 -165 33 -231 99 -117 117 -130
321 -30 448 l30 38 -86 216 c-47 120 -89 217 -93 217 -3 0 -14 -6 -24 -13 -17
-12 -13 -25 58 -202 42 -104 76 -196 76 -203 0 -8 -9 -27 -21 -43 -58 -81 -79
-242 -44 -339 37 -104 110 -189 204 -235 240 -120 523 25 573 293 31 167 -69
356 -227 428 -63 29 -53 7 -110 269 -21 94 -40 172 -44 176 -3 3 -16 3 -29 1z"/>
<path d="M14194 10356 c-2 -6 -22 -94 -44 -196 -23 -102 -43 -193 -46 -202 -3
-9 -29 -28 -59 -42 -158 -72 -258 -261 -227 -428 32 -174 161 -301 335 -331
167 -28 342 64 419 220 58 118 50 281 -18 385 -13 21 -24 43 -24 50 0 7 34 98
76 203 69 175 74 190 58 202 -10 7 -21 13 -25 13 -4 0 -46 -97 -92 -215 l-85
-216 34 -50 c119 -178 62 -406 -128 -506 -48 -25 -63 -28 -153 -28 -84 0 -107
4 -147 23 -70 34 -130 93 -163 158 -27 54 -30 68 -30 159 0 86 4 106 24 145
48 91 104 142 192 176 24 9 47 20 51 23 4 3 27 98 52 211 25 113 48 215 51
226 4 17 -1 23 -21 27 -14 2 -27 0 -30 -7z"/>
<path d="M4954 10032 c-78 -53 -156 -108 -173 -122 l-33 -25 265 -346 c146
-191 273 -358 282 -373 34 -51 13 -138 -40 -166 -38 -20 -90 -17 -122 6 -16
12 -146 176 -291 365 -145 189 -269 350 -277 358 -16 16 -33 5 -275 -188 -80
-64 -151 -121 -158 -127 -11 -8 47 -76 270 -320 155 -170 293 -322 306 -338
15 -20 22 -42 22 -73 0 -38 -5 -50 -34 -79 -29 -29 -41 -34 -79 -34 -28 0 -53
7 -69 19 -13 11 -156 164 -318 340 l-294 321 -25 -23 c-14 -13 -91 -82 -171
-154 -80 -72 -158 -144 -173 -161 l-28 -29 288 -274 c158 -151 302 -289 320
-307 64 -65 50 -157 -30 -196 -70 -34 -80 -27 -432 309 l-320 305 -143 -146
c-79 -80 -142 -149 -140 -154 3 -8 16 -19 503 -430 198 -167 370 -312 383
-323 l22 -21 70 77 c102 110 417 408 615 581 292 255 633 521 930 722 82 56
143 104 140 111 -12 34 -630 993 -639 993 -6 -1 -74 -45 -152 -98z"/>
<path d="M17485 9898 c-467 -646 -556 -770 -553 -772 2 -2 80 -56 173 -121
319 -222 634 -467 900 -700 169 -147 460 -422 571 -538 95 -99 106 -108 122
-95 308 261 882 761 882 768 0 6 -60 71 -132 145 l-133 135 -320 -305 c-347
-331 -360 -340 -429 -311 -39 16 -76 68 -76 106 0 14 8 39 18 56 9 17 156 163
325 324 l308 293 -28 29 c-15 17 -93 89 -173 161 -80 72 -157 141 -171 154
l-25 23 -294 -321 c-162 -176 -305 -329 -318 -340 -16 -12 -41 -19 -69 -19
-38 0 -50 5 -79 34 -28 28 -34 41 -34 78 0 25 7 54 17 67 9 14 147 166 306
340 230 250 286 317 275 325 -7 6 -78 63 -158 127 -205 163 -258 202 -269 195
-5 -3 -109 -138 -232 -299 -313 -410 -327 -427 -365 -443 -91 -38 -189 59
-150 149 8 18 136 192 285 387 l272 355 -28 23 c-47 37 -261 182 -270 182 -4
0 -71 -87 -148 -192z"/>
<path d="M6130 9351 c-12 -8 -10 -16 10 -54 14 -24 68 -120 120 -214 l95 -171
65 -6 c265 -24 406 -318 259 -540 -119 -179 -375 -201 -530 -47 -93 93 -124
230 -83 359 l17 51 -150 187 c-82 103 -154 189 -159 191 -5 2 -18 -2 -27 -9
-15 -12 -2 -31 128 -195 l144 -182 -16 -76 c-14 -63 -15 -88 -6 -142 24 -137
107 -248 231 -306 61 -29 76 -32 162 -32 75 1 107 5 153 24 81 32 168 115 209
199 31 62 33 73 33 172 0 97 -2 110 -32 172 -58 122 -176 209 -307 226 l-58 7
-108 195 c-60 107 -115 196 -122 197 -7 2 -20 -1 -28 -6z"/>
<path d="M16401 9161 l-111 -198 -56 -6 c-78 -8 -175 -56 -233 -116 -118 -121
-147 -301 -73 -452 52 -107 132 -176 244 -210 306 -93 587 191 496 502 l-10
36 146 184 c131 164 144 185 129 197 -9 6 -20 12 -25 12 -4 0 -69 -78 -144
-172 -75 -95 -144 -181 -152 -190 -13 -15 -12 -25 3 -82 58 -212 -61 -407
-271 -445 -150 -27 -298 48 -366 187 -29 59 -33 76 -33 152 0 71 4 94 26 141
56 118 159 192 287 205 l67 6 95 171 c52 94 106 190 120 215 20 37 22 45 10
52 -8 6 -20 10 -27 10 -6 0 -61 -89 -122 -199z"/>
<path d="M19427 7728 c-245 -211 -446 -387 -446 -392 -1 -4 25 -38 57 -75 465
-529 959 -1263 1327 -1975 11 -21 25 -40 30 -42 6 -2 228 95 495 217 267 121
509 232 538 245 l53 23 -42 83 c-102 205 -163 309 -178 305 -9 -2 -189 -106
-401 -231 -272 -160 -394 -226 -415 -226 -36 0 -89 31 -106 61 -17 32 -15 94
4 122 9 14 184 124 411 257 218 128 396 236 396 240 0 19 -371 613 -391 625
-5 4 -169 -107 -364 -245 -241 -171 -365 -253 -388 -257 -68 -11 -137 48 -137
117 0 54 32 81 390 336 229 163 358 260 353 267 -10 18 -261 358 -287 390
l-23 29 -348 -276 c-372 -295 -386 -304 -451 -273 -57 27 -80 89 -59 156 3 11
163 145 356 297 192 153 349 281 349 284 0 11 -260 320 -269 320 -5 0 -209
-172 -454 -382z"/>
<path d="M2661 7956 c-67 -80 -124 -151 -127 -159 -3 -8 112 -106 323 -272
180 -143 340 -272 356 -288 21 -23 27 -39 27 -76 0 -26 -7 -56 -16 -69 -31
-45 -101 -65 -146 -41 -11 6 -174 133 -361 281 l-341 271 -23 -29 c-28 -35
-276 -374 -286 -391 -5 -7 119 -101 349 -264 216 -153 364 -265 376 -284 44
-69 -7 -162 -93 -172 -48 -6 -34 -15 -594 385 -93 67 -174 122 -178 122 -15 0
-397 -605 -397 -629 0 -4 177 -112 394 -240 222 -131 402 -243 410 -257 20
-30 20 -103 0 -132 -20 -29 -65 -52 -102 -52 -25 0 -329 172 -724 410 -71 43
-99 56 -106 47 -16 -19 -182 -343 -182 -354 0 -6 30 -24 68 -41 37 -16 273
-130 525 -251 252 -122 463 -222 469 -224 5 -1 44 61 85 138 347 653 737 1233
1200 1788 69 81 123 152 121 157 -3 9 -80 75 -573 489 -159 134 -299 253 -311
263 -21 18 -21 18 -143 -126z"/>
<path d="M4036 7631 c-18 -20 -15 -23 141 -182 l159 -162 53 13 c110 26 250
-17 326 -101 64 -71 90 -140 90 -239 0 -74 -4 -93 -29 -145 -61 -123 -157
-186 -296 -193 -116 -5 -183 19 -261 97 -71 72 -99 140 -99 246 l0 75 -132 98
c-237 175 -226 168 -244 150 -9 -9 -14 -21 -10 -26 3 -6 77 -62 165 -126 l158
-116 6 -72 c14 -182 118 -316 286 -368 76 -24 137 -25 215 -5 113 30 213 114
264 223 24 50 27 69 27 162 0 97 -2 110 -32 172 -40 85 -106 151 -191 191 -62
29 -76 32 -175 33 l-109 1 -147 147 c-145 145 -147 147 -165 127z"/>
<path d="M18478 7503 l-146 -146 -109 -1 c-100 -1 -113 -3 -175 -33 -83 -39
-153 -107 -193 -188 -28 -56 -30 -68 -30 -170 0 -104 2 -114 33 -177 42 -85
129 -168 208 -198 168 -62 354 -14 461 120 54 69 82 141 90 236 l6 74 159 117
c87 64 161 120 165 126 3 5 -2 16 -10 25 -19 18 -11 24 -222 -133 l-152 -113
-5 -89 c-5 -110 -29 -165 -100 -237 -75 -74 -143 -99 -258 -94 -101 5 -158 28
-226 95 -117 113 -136 305 -43 439 79 116 228 175 359 144 l52 -13 100 99 c55
55 126 129 159 165 55 63 58 67 41 82 -17 15 -27 7 -164 -130z"/>
<path d="M986 5281 c-21 -47 -58 -132 -82 -188 l-43 -102 407 -161 c224 -89
415 -169 426 -178 71 -65 48 -175 -43 -203 -42 -13 -56 -8 -600 210 -151 61
-276 109 -278 107 -17 -16 -231 -632 -223 -639 3 -2 176 -70 385 -151 209 -82
391 -154 405 -161 87 -45 92 -160 10 -209 -16 -9 -40 -16 -55 -16 -15 0 -201
68 -414 151 -212 83 -391 153 -397 156 -6 2 -31 -70 -62 -184 -64 -233 -152
-596 -147 -602 3 -2 181 -46 397 -97 532 -126 514 -121 542 -155 54 -63 36
-147 -38 -183 l-38 -19 -454 109 c-249 59 -456 105 -459 102 -7 -7 -57 -280
-86 -471 -17 -108 -20 -150 -12 -155 7 -4 222 -20 480 -36 257 -15 520 -32
583 -36 63 -5 118 -5 121 -2 3 4 16 72 29 152 120 761 361 1588 681 2339 44
102 76 188 72 192 -7 7 -842 411 -999 484 l-71 33 -37 -87z"/>
<path d="M4095 4970 c-146 -272 -215 -389 -225 -387 -13 2 -15 48 -18 330 l-2
327 -160 0 -160 0 0 -930 0 -930 160 0 160 0 0 531 0 531 33 -7 c144 -30 328
-264 373 -474 10 -47 14 -142 14 -323 l0 -258 160 0 160 0 0 178 c0 98 -5 216
-10 262 -44 363 -231 620 -510 705 -33 10 -60 21 -60 26 0 21 227 345 288 409
93 101 155 135 244 135 63 0 66 1 50 16 -27 27 -283 249 -285 249 -2 0 -97
-176 -212 -390z"/>
<path d="M21125 5092 c-297 -135 -541 -246 -543 -247 -1 -1 23 -60 54 -131
214 -489 417 -1092 550 -1632 52 -211 135 -623 160 -795 l18 -119 75 6 c42 3
177 13 301 21 124 9 322 22 440 30 371 25 380 26 380 38 0 23 -51 334 -76 470
-18 94 -30 137 -39 137 -8 0 -146 -32 -307 -70 -661 -158 -589 -144 -630 -127
-70 29 -96 108 -56 167 13 19 35 40 48 47 14 6 207 54 430 107 223 53 421 101
441 106 l37 10 -20 88 c-34 158 -171 678 -183 699 -1 2 -180 -67 -397 -152
-218 -85 -409 -155 -423 -155 -100 0 -152 134 -78 200 17 15 181 85 423 179
217 85 397 156 400 158 6 5 -77 252 -162 480 l-60 162 -61 -24 c-34 -13 -217
-85 -407 -161 -218 -87 -359 -138 -382 -138 -68 -1 -130 75 -114 139 16 63 43
77 468 245 l406 161 -42 102 c-24 56 -58 134 -77 173 l-34 72 -540 -246z"/>
<path d="M11630 5221 c-431 -347 -594 -775 -458 -1201 26 -81 88 -206 141
-285 53 -78 182 -211 256 -265 61 -44 156 -100 170 -100 19 0 172 127 267 220
366 361 451 778 244 1190 -75 148 -176 274 -302 375 -73 57 -202 135 -224 135
-5 0 -47 -31 -94 -69z m66 -290 c99 -72 214 -222 275 -358 59 -131 83 -243 83
-388 1 -150 -13 -216 -73 -340 -48 -102 -84 -145 -120 -145 -60 0 -217 159
-300 305 -169 295 -177 645 -20 880 46 68 54 75 83 75 21 0 48 -11 72 -29z"/>
<path d="M8881 5255 c-88 -25 -151 -65 -237 -150 -175 -173 -265 -416 -265
-709 1 -245 53 -427 177 -622 46 -72 170 -201 248 -261 72 -53 273 -154 313
-156 24 -2 43 15 137 123 60 69 122 139 138 156 l29 31 -108 37 c-59 21 -137
54 -173 73 -222 122 -401 324 -481 543 -16 44 -29 83 -29 85 0 11 448 5 481
-6 53 -18 97 -56 129 -112 28 -49 29 -50 38 -26 6 13 35 82 66 153 31 72 56
131 56 133 0 2 -173 3 -385 3 l-385 0 0 43 c0 23 7 86 15 141 20 135 68 235
129 271 87 51 177 32 402 -86 l150 -78 21 47 c11 26 50 112 87 191 l66 143
-28 -6 c-162 -35 -188 -33 -330 19 -92 33 -188 40 -261 20z"/>
<path d="M14481 5255 c-88 -25 -151 -65 -236 -150 -176 -175 -266 -416 -266
-709 1 -245 53 -427 177 -622 46 -72 170 -201 248 -261 72 -53 273 -154 313
-156 24 -2 43 15 137 123 60 69 122 139 138 156 l29 31 -108 37 c-59 21 -137
54 -173 73 -222 122 -401 324 -481 543 -16 44 -29 83 -29 85 0 11 448 5 481
-6 53 -18 97 -56 129 -112 28 -49 29 -50 38 -26 6 13 35 82 66 153 31 72 56
131 56 133 0 2 -173 3 -385 3 l-385 0 0 43 c0 23 7 86 15 141 20 135 68 235
129 271 87 51 177 32 402 -86 l150 -78 21 47 c11 26 50 112 87 191 l66 143
-28 -6 c-162 -35 -188 -33 -330 19 -92 33 -188 40 -261 20z"/>
<path d="M2322 5229 c-7 -12 -12 -22 -10 -24 2 -2 96 -55 209 -119 l206 -117
38 22 c40 24 132 49 181 49 18 0 61 -9 97 -20 80 -25 164 -96 205 -174 24 -46
27 -61 27 -156 0 -97 -2 -109 -29 -158 -116 -209 -388 -251 -554 -85 -47 47
-92 132 -92 174 0 14 -6 32 -12 41 -16 19 -427 171 -445 164 -7 -3 -13 -14
-13 -24 0 -16 29 -30 158 -77 272 -100 244 -85 267 -152 28 -80 56 -123 120
-182 79 -71 146 -95 266 -96 90 0 99 2 171 38 244 120 302 431 118 631 -111
121 -305 161 -451 94 l-55 -25 -190 108 c-104 60 -191 108 -194 109 -3 0 -11
-9 -18 -21z"/>
<path d="M20145 5141 l-190 -108 -55 26 c-48 23 -68 26 -160 26 -98 0 -109 -2
-172 -33 -196 -96 -281 -332 -189 -528 41 -89 99 -147 189 -192 72 -35 81 -37
171 -37 120 1 187 25 266 96 64 59 92 102 120 182 23 67 -6 51 268 151 125 46
157 62 157 76 0 11 -5 22 -11 25 -9 6 -424 -139 -442 -155 -4 -3 -14 -33 -23
-65 -41 -158 -175 -260 -339 -259 -54 1 -85 7 -127 26 -307 141 -271 571 54
654 80 21 152 13 232 -26 l61 -29 205 115 c113 64 206 117 208 119 4 4 -21 45
-28 44 -3 0 -90 -49 -195 -108z"/>
<path d="M5290 5235 c0 -3 12 -53 27 -112 l26 -106 -48 -41 c-157 -133 -283
-328 -359 -558 -54 -162 -67 -237 -73 -423 -6 -189 7 -286 53 -418 26 -72 92
-197 105 -197 3 0 148 74 320 164 173 90 317 162 320 160 3 -2 21 -75 40 -164
l33 -160 164 0 c127 0 163 3 159 13 -2 6 -103 425 -223 930 l-218 917 -163 0
c-90 0 -163 -2 -163 -5z m225 -889 c58 -270 102 -493 98 -497 -10 -9 -361
-169 -372 -169 -8 0 -52 138 -72 225 -6 28 -11 111 -11 185 0 244 55 439 206
730 25 48 30 52 37 35 5 -11 56 -240 114 -509z"/>
<path d="M6684 5225 c3 -9 18 -62 33 -119 l27 -103 -62 -57 c-182 -170 -344
-461 -410 -740 -23 -96 -26 -132 -26 -271 1 -140 4 -172 27 -259 15 -55 48
-143 74 -195 l48 -96 164 -3 c153 -2 163 -1 156 15 -40 94 -90 257 -110 358
-75 370 -40 686 109 972 57 109 83 144 90 123 6 -15 326 -1456 326 -1465 0 -3
72 -5 160 -5 l160 0 -5 23 c-2 12 -45 185 -95 384 -52 209 -90 383 -90 411 0
115 46 305 107 446 48 111 135 243 144 219 3 -10 82 -348 175 -750 l169 -733
157 0 c87 0 158 4 158 8 0 8 -427 1806 -436 1835 -5 15 -22 17 -165 17 -87 0
-159 -2 -159 -5 0 -3 12 -52 26 -109 l26 -104 -55 -65 c-66 -78 -119 -155
-185 -270 l-51 -89 -10 39 c-38 146 -151 595 -151 598 0 3 -75 5 -166 5 -146
0 -165 -2 -160 -15z"/>
<path d="M9770 4310 l0 -930 160 0 160 0 0 510 0 510 215 0 215 0 0 -510 0
-510 160 0 160 0 0 930 0 930 -160 0 -160 0 0 -340 0 -340 -215 0 -215 0 0
340 0 340 -160 0 -160 0 0 -930z"/>
<path d="M12640 4310 l0 -930 165 0 165 0 0 330 0 330 28 6 c308 66 495 188
600 393 74 142 93 245 99 559 l5 242 -531 0 -531 0 0 -930z m738 605 c3 -195
-7 -269 -50 -374 -63 -152 -169 -278 -273 -327 -93 -44 -85 -84 -85 426 l0
450 203 -2 202 -3 3 -170z"/>
<path d="M15394 5213 c3 -16 17 -104 31 -198 14 -93 28 -177 31 -185 3 -10 16
6 36 43 39 71 136 179 182 201 46 22 311 24 303 2 -3 -7 -105 -138 -226 -291
-122 -152 -221 -280 -221 -283 0 -4 55 -38 121 -76 l122 -70 25 30 c14 16 44
50 68 77 l42 47 55 -20 c57 -21 85 -46 110 -95 64 -127 75 -453 22 -660 -21
-81 -70 -180 -103 -206 -23 -18 -36 -21 -97 -17 -190 13 -277 149 -301 471 -4
54 -10 96 -14 95 -4 -2 -77 -45 -163 -96 l-155 -93 15 -52 c60 -204 263 -392
478 -443 92 -21 228 -15 305 15 79 30 185 114 241 190 169 230 203 521 89 757
-65 135 -168 222 -302 258 -114 30 -129 -2 139 317 132 157 243 291 247 297 5
9 -122 12 -539 12 l-547 0 6 -27z"/>
<path d="M17150 5235 c0 -3 12 -53 26 -110 l26 -105 -89 -84 c-101 -95 -169
-189 -235 -321 -111 -222 -159 -426 -158 -675 0 -160 21 -276 73 -406 20 -49
35 -90 33 -91 -6 -6 -736 -90 -1679 -192 -98 -10 -180 -21 -181 -23 -3 -2 29
-208 84 -539 l11 -66 307 52 c169 29 340 58 380 65 146 24 57 21 -250 -10
-172 -17 -326 -32 -342 -33 l-30 -2 -47 235 c-26 129 -46 237 -44 239 2 2 194
25 427 52 1016 117 1377 159 1437 165 l64 6 -5 -148 c-3 -84 -10 -159 -16
-171 -7 -12 -29 -27 -49 -34 -107 -34 -360 -155 -349 -166 4 -5 429 146 437
155 4 4 16 101 27 217 11 115 24 211 29 213 4 1 114 58 243 126 129 68 238
122 241 120 3 -2 21 -75 40 -164 l33 -160 164 0 c127 0 163 3 159 13 -2 6
-103 425 -223 930 l-218 917 -163 0 c-90 0 -163 -2 -163 -5z m225 -889 c58
-269 102 -493 98 -497 -9 -9 -361 -169 -372 -169 -9 0 -56 147 -72 225 -7 33
-12 116 -12 185 1 241 57 440 207 730 25 48 30 52 37 35 5 -11 56 -240 114
-509z"/>
<path d="M18180 4310 l0 -930 403 0 c402 0 403 0 433 -22 67 -50 146 -163 204
-290 19 -43 38 -77 41 -78 4 0 76 194 187 508 3 9 -19 12 -92 12 l-96 0 -2
863 -3 862 -162 3 -163 2 0 -865 0 -865 -210 0 -210 0 0 865 0 865 -165 0
-165 0 0 -930z"/>
<path d="M12475 3329 c-4 -55 -4 -103 -2 -106 3 -3 31 34 63 81 31 47 55 88
53 89 -7 6 -89 37 -98 37 -5 0 -12 -45 -16 -101z"/>
<path d="M12330 3304 c0 -61 4 -104 9 -98 4 5 31 43 59 86 l51 76 -42 15 c-23
8 -50 18 -59 22 -17 7 -18 -2 -18 -101z"/>
<path d="M11550 3000 l0 -269 -102 -3 -103 -3 -3 -99 -3 -100 41 51 c22 28 40
55 40 59 0 4 -17 25 -37 46 -20 21 -33 38 -27 38 5 0 28 -18 49 -40 l39 -40
138 0 138 0 0 218 0 219 -26 24 c-46 43 -127 140 -121 145 3 3 39 -30 81 -73
l75 -78 85 84 c47 47 89 82 93 78 4 -4 -32 -47 -80 -95 l-87 -87 0 -218 0
-217 278 0 c152 0 320 -5 372 -11 l95 -11 103 46 c111 50 112 50 112 37 0 -5
-44 -28 -97 -51 -54 -23 -101 -45 -105 -49 -4 -3 2 -31 12 -61 21 -64 38 -191
23 -175 -6 6 -15 43 -22 83 -6 40 -19 90 -29 110 -16 34 -21 38 -82 49 -41 8
-174 12 -362 13 l-298 0 0 -305 0 -305 48 0 c66 0 228 -26 285 -46 94 -32 282
-174 350 -264 51 -67 93 -148 110 -210 58 -213 78 -378 70 -583 l-6 -143 77
-84 c71 -79 87 -101 69 -99 -5 0 -37 34 -73 74 -36 41 -67 74 -70 74 -3 0 -43
-35 -90 -79 l-85 -79 168 -1 167 0 1 118 c2 114 2 115 11 52 5 -36 12 -87 16
-114 l7 -49 150 126 c123 103 176 157 293 297 79 94 142 173 139 176 -2 2 -68
-63 -147 -146 -124 -131 -363 -340 -375 -328 -5 4 -77 336 -78 355 0 16 55
106 134 215 36 51 65 95 63 97 -8 9 -42 -29 -125 -140 l-86 -117 -12 105 c-14
125 -50 269 -87 355 -42 97 -128 221 -192 277 -112 99 -300 183 -474 212 l-78
13 0 223 0 223 191 0 c115 0 207 -5 230 -11 50 -15 102 -59 155 -132 l44 -59
14 33 c8 19 48 108 90 198 42 90 76 168 76 172 0 5 -180 9 -400 9 l-400 0 0
270 0 270 -185 0 -185 0 0 -270z"/>
<path d="M14584 3106 c-16 -41 45 -141 162 -265 124 -132 226 -198 249 -161
18 29 -83 179 -200 295 -115 115 -198 166 -211 131z"/>
<path d="M14536 3050 c14 -75 115 -245 203 -344 l35 -38 -29 -21 c-17 -12 -63
-52 -102 -91 l-73 -69 -67 62 c-73 66 -262 225 -303 253 l-25 18 29 -10 c25
-9 27 -9 17 4 -10 12 -3 17 46 31 107 31 178 86 223 175 11 22 20 41 20 44 0
2 -26 -22 -59 -54 -32 -33 -101 -86 -152 -119 -91 -60 -93 -60 -114 -42 -11
10 -72 37 -135 61 -63 23 -162 64 -219 91 -57 27 -110 49 -118 49 -25 0 -138
-122 -162 -175 -39 -83 -38 -211 3 -306 5 -12 -4 -20 -39 -33 -63 -25 -143
-101 -187 -180 l-37 -66 27 -16 c24 -14 15 -13 -21 1 -22 9 -140 -70 -179
-120 -20 -27 -43 -74 -53 -109 -10 -34 -22 -67 -27 -73 -8 -10 -4 -13 14 -13
31 0 48 17 48 50 0 76 93 189 175 212 54 15 82 42 90 86 19 104 109 188 222
207 47 7 68 25 31 25 -13 0 -30 5 -38 10 -19 12 57 1 82 -11 13 -7 22 0 41 34
23 39 98 101 286 235 61 44 42 40 -61 -12 -95 -48 -239 -139 -305 -193 -24
-19 -47 -32 -52 -28 -5 3 -13 30 -17 61 -8 69 10 164 43 226 26 47 107 138
124 138 8 0 293 -116 351 -143 34 -16 264 -225 393 -358 218 -225 291 -316
349 -434 116 -235 165 -432 173 -695 6 -187 -8 -325 -48 -482 -26 -103 -23
-118 7 -34 32 94 71 271 83 388 27 246 -3 496 -88 727 -36 95 -106 238 -131
266 -11 11 -24 43 -30 70 -29 134 -52 204 -68 207 -11 2 21 31 85 78 l101 74
-102 107 c-90 94 -164 180 -244 284 l-23 30 7 -35z m194 -661 c22 -56 38 -104
36 -106 -2 -2 -36 33 -77 78 l-73 82 34 28 c18 16 35 27 37 25 2 -2 22 -50 43
-107z"/>
<path d="M16205 2817 c-147 -28 -163 -32 -117 -35 28 -2 93 4 142 12 50 9 94
16 99 16 5 0 11 -23 15 -51 10 -71 55 -212 72 -226 12 -9 -3 -15 -75 -32 -175
-41 -286 -53 -446 -48 -104 4 -176 12 -233 26 -46 12 -87 21 -92 21 -4 0 -20
-23 -34 -52 -54 -109 -24 -208 87 -281 30 -20 62 -37 71 -37 30 0 24 -17 -13
-38 -21 -12 -56 -41 -79 -66 -34 -36 -41 -53 -47 -100 -12 -97 -2 -161 31
-204 48 -59 81 -70 253 -83 85 -6 182 -9 214 -6 55 5 64 9 109 54 28 26 64 72
81 102 l30 53 51 -6 c55 -7 76 -25 102 -83 35 -80 -2 -161 -109 -237 -132 -94
-251 -126 -340 -92 -53 20 -116 83 -156 156 -17 30 -31 48 -31 39 0 -34 54
-120 109 -172 50 -48 65 -57 109 -63 50 -6 51 -7 81 -68 38 -76 109 -158 167
-192 43 -25 44 -27 44 -76 0 -65 11 -82 73 -118 54 -31 114 -38 188 -23 33 7
33 7 9 14 -16 5 -1 7 45 8 39 1 88 6 110 12 54 15 109 74 124 132 30 122 -4
176 -124 192 l-50 6 51 -24 c99 -48 121 -119 63 -204 -38 -55 -75 -72 -183
-83 -45 -5 -106 -12 -136 -15 -45 -5 -61 -3 -87 14 -40 25 -62 59 -70 105 l-6
36 55 0 c78 0 147 37 238 129 42 42 86 97 98 122 42 87 23 184 -53 268 -35 38
-41 41 -89 41 -36 0 -47 -3 -36 -10 8 -5 27 -10 42 -10 56 0 121 -102 122
-190 1 -74 -32 -136 -112 -211 -74 -70 -126 -98 -193 -106 -96 -11 -185 48
-269 179 l-41 63 46 11 c69 18 148 60 234 124 139 105 160 193 73 308 -23 30
-29 32 -83 32 l-58 0 2 71 2 71 55 -7 c30 -3 106 -12 168 -20 63 -7 115 -15
116 -17 2 -2 43 -137 92 -302 77 -262 114 -359 131 -342 3 3 -81 328 -133 511
-4 12 14 0 45 -33 60 -62 152 -124 227 -152 74 -27 92 -25 24 3 -74 31 -134
73 -197 140 -48 50 -113 141 -113 158 0 3 48 8 108 11 80 3 119 10 155 26 26
11 47 24 47 27 0 3 -9 1 -21 -5 -87 -47 -445 -18 -874 71 -251 51 -418 102
-474 143 -66 49 -96 109 -81 163 21 77 25 79 142 57 161 -30 423 -26 589 9
118 25 238 62 339 105 44 18 45 18 115 -4 122 -39 232 -57 303 -51 83 8 172
48 172 77 0 29 26 76 45 84 86 33 241 -61 496 -300 254 -237 427 -478 474
-659 19 -74 19 -98 -1 -164 -19 -64 -76 -126 -155 -165 l-54 -27 73 6 c133 11
214 47 260 115 21 31 23 44 20 110 -3 62 -10 89 -40 153 -181 378 -808 967
-1030 967 -58 0 -84 -22 -93 -77 -4 -21 -8 -43 -10 -50 -7 -20 -105 -43 -184
-43 -86 0 -149 15 -264 61 l-80 32 -101 -33 c-55 -18 -107 -35 -115 -38 -8 -3
-12 -1 -8 4 3 6 -5 64 -18 130 -14 65 -25 134 -25 152 0 39 13 39 -205 -1z
m-368 -728 c110 -29 137 -69 61 -90 -48 -12 -140 -50 -135 -55 1 -2 57 8 122
21 127 26 283 33 331 15 26 -10 27 -12 22 -73 -7 -80 -34 -132 -99 -191 l-51
-46 -151 0 c-205 0 -267 12 -318 60 -32 30 -39 44 -39 74 0 46 12 69 59 121
36 39 19 32 -31 -14 -33 -30 -36 -15 -9 44 18 40 130 155 150 155 6 0 46 -9
88 -21z m195 -63 c-34 -7 -46 -6 -53 5 -15 24 -10 26 43 15 l53 -11 -43 -9z"/>
<path d="M15890 2768 c0 -4 7 -33 15 -65 8 -31 15 -84 16 -118 l1 -60 13 40
c17 50 18 80 5 127 -9 33 -49 93 -50 76z"/>
<path d="M7062 2707 c-323 -240 -523 -505 -599 -795 -34 -132 -43 -333 -19
-453 63 -310 249 -596 511 -781 78 -56 176 -108 201 -108 26 0 218 155 334
270 394 391 504 815 322 1238 -94 218 -258 422 -448 558 -54 38 -209 124 -225
124 -3 0 -38 -24 -77 -53z m97 -4 c5 -21 15 -64 22 -96 12 -56 17 -63 112
-150 168 -156 301 -364 367 -577 28 -88 34 -125 38 -233 13 -343 -73 -538
-395 -893 -136 -150 -169 -177 -158 -131 38 173 37 161 18 175 -10 7 -60 36
-112 65 -73 41 -109 68 -163 127 -205 225 -315 548 -293 869 6 94 12 117 50
208 39 90 57 118 172 255 71 84 171 213 222 286 52 72 98 132 102 132 5 0 13
-17 18 -37z"/>
<path d="M7048 2587 c-48 -67 -86 -123 -84 -124 4 -4 188 77 200 87 5 5 0 41
-10 83 l-19 75 -87 -121z"/>
<path d="M7045 2475 l-120 -54 -110 -133 c-90 -109 -118 -150 -152 -228 -37
-85 -42 -107 -49 -202 -16 -248 39 -477 165 -688 90 -149 170 -228 309 -306
l103 -57 82 19 c74 16 86 23 122 62 61 67 161 215 207 306 87 173 105 473 40
677 -38 124 -129 300 -204 401 -58 76 -237 251 -261 255 -7 1 -66 -23 -132
-52z m55 -125 c65 -42 199 -182 252 -265 206 -320 243 -676 97 -955 -56 -107
-106 -166 -148 -173 -28 -5 -44 0 -88 30 -115 76 -245 229 -318 373 -134 266
-153 562 -51 795 33 75 125 213 146 219 38 10 67 4 110 -24z"/>
<path d="M7258 803 l-57 -15 -11 -51 c-6 -29 -14 -63 -17 -76 -4 -18 12 -5 63
49 74 78 100 111 87 109 -4 -1 -34 -8 -65 -16z"/>
<path d="M4920 1645 l0 -1075 185 0 185 0 0 975 0 975 203 0 c195 0 204 -1
257 -26 73 -34 133 -85 187 -158 25 -34 46 -62 48 -64 2 -2 -10 46 -26 106
-28 104 -32 112 -83 163 l-54 54 -294 -6 c-161 -4 -294 -7 -295 -8 0 0 -23
-53 -49 -116 -26 -63 -52 -115 -57 -115 -11 0 -5 19 43 133 21 51 36 95 32 98
-13 12 -203 92 -207 87 -3 -2 22 -78 55 -168 53 -147 63 -186 44 -167 -5 5
-113 294 -128 345 -5 14 -3 22 4 22 7 0 63 -22 125 -49 l112 -48 314 7 314 7
145 51 145 50 -602 1 -603 1 0 -1075z m190 -118 l0 -763 75 -74 c41 -41 75
-81 75 -90 0 -8 -38 23 -83 68 l-84 84 -63 -74 c-35 -40 -67 -74 -71 -76 -22
-9 -4 19 61 95 l70 81 0 756 c0 497 3 756 10 756 7 0 10 -261 10 -763z"/>
<path d="M6134 2711 c4 -5 -51 -28 -121 -51 -183 -61 -175 -52 -115 -113 49
-50 52 -57 85 -182 19 -71 37 -123 40 -115 4 8 31 110 62 225 31 116 58 218
61 228 3 9 0 17 -6 17 -6 0 -9 -4 -6 -9z"/>
<path d="M8749 2626 c52 -52 98 -93 102 -90 5 2 36 43 69 89 52 73 80 100 80
80 0 -3 -29 -44 -65 -92 -59 -79 -65 -91 -59 -123 3 -19 94 -417 202 -885
l197 -850 115 -82 c63 -45 114 -87 112 -93 -1 -5 3 -10 9 -10 7 0 9 9 5 23 -3
12 -119 496 -258 1075 l-253 1052 -175 0 -175 0 94 -94z"/>
<path d="M9872 2702 c32 -45 144 -181 149 -181 5 -1 88 95 152 176 l18 23
-166 0 c-159 0 -166 -1 -153 -18z"/>
<path d="M10202 2712 c-1 -8 -37 -56 -80 -108 l-79 -94 -6 -257 c-9 -346 -9
-903 1 -902 4 0 195 219 425 486 l417 487 0 104 0 104 -87 83 c-49 46 -85 86
-82 89 3 3 42 -25 86 -64 44 -38 85 -70 90 -70 8 0 86 78 127 128 l19 22 -171
0 -172 0 0 -235 0 -236 -237 -305 -238 -306 -5 544 c-3 299 -6 537 -8 530z"/>
<path d="M10979 2636 l-76 -81 -6 -565 c-4 -311 -7 -718 -7 -906 l0 -340 90
-83 90 -82 0 1070 c0 589 -3 1070 -7 1070 -5 -1 -42 -38 -84 -83z"/>
<path d="M8640 2694 c0 -5 13 -59 29 -121 l28 -111 -39 -39 c-100 -96 -235
-303 -308 -472 -200 -461 -225 -952 -66 -1297 l36 -78 45 79 45 79 -29 95
c-64 206 -91 441 -72 611 10 93 56 289 88 380 34 94 128 289 189 390 64 108
140 203 207 260 43 37 45 49 15 75 -13 10 -56 50 -95 88 -40 39 -73 66 -73 61z"/>
<path d="M9840 1640 l0 -1065 83 80 84 80 6 877 6 877 -75 93 c-42 51 -82 100
-90 108 -12 12 -14 -133 -14 -1050z"/>
<path d="M11400 2570 l-42 -50 96 0 96 0 0 -972 0 -973 85 81 85 80 0 942 0
942 -139 0 -139 0 -42 -50z"/>
<path d="M8762 2412 c-85 -87 -165 -207 -250 -378 -70 -141 -106 -236 -148
-404 -35 -140 -37 -151 -37 -320 1 -150 4 -192 27 -295 14 -66 36 -154 50
-195 l24 -75 83 -52 c46 -29 105 -64 131 -78 l47 -26 -25 63 c-122 311 -172
583 -161 882 7 188 33 315 96 477 41 103 129 270 147 276 5 2 40 -131 77 -295
38 -163 123 -529 188 -812 66 -283 125 -536 130 -563 l11 -47 54 83 54 83
-201 870 c-111 478 -205 873 -209 878 -5 5 -43 -26 -88 -72z"/>
<path d="M10453 1798 l-423 -492 1 -290 0 -291 87 -67 87 -67 5 384 5 384 235
307 235 306 5 -698 5 -699 179 -3 c99 -1 178 -1 175 2 -2 2 -42 38 -89 80
l-85 76 -77 -77 c-43 -42 -81 -74 -85 -70 -4 4 29 45 74 90 l81 82 6 768 c4
422 5 767 4 767 -2 0 -193 -222 -425 -492z"/>
<path d="M2002 2269 c-69 -12 -147 -51 -198 -101 l-42 -40 -190 36 c-227 43
-228 43 -234 13 -5 -23 -1 -24 220 -65 l225 -42 34 40 c20 23 62 53 101 72 61
30 75 33 157 33 79 0 97 -4 148 -29 206 -104 259 -373 106 -540 -66 -73 -138
-108 -233 -114 -131 -8 -242 46 -314 153 -33 49 -35 50 -95 56 -34 4 -135 7
-224 8 l-163 1 0 -23 c0 -23 2 -24 128 -30 70 -4 163 -7 207 -7 l80 -1 34 -49
c168 -248 552 -210 688 68 25 51 28 67 28 162 0 97 -2 110 -31 170 -40 83 -75
124 -146 171 -82 52 -190 74 -286 58z"/>
<path d="M20540 2269 c-147 -25 -268 -131 -315 -278 -26 -80 -17 -208 19 -283
59 -123 170 -207 307 -230 137 -24 292 41 375 156 l39 55 80 1 c44 0 137 3
208 7 125 6 127 7 127 30 l0 23 -162 -1 c-90 -1 -191 -4 -225 -8 -60 -6 -62
-7 -95 -56 -123 -179 -364 -209 -523 -64 -79 73 -109 140 -110 249 0 73 4 94
29 147 33 73 104 144 174 176 72 34 207 31 284 -5 31 -14 78 -47 103 -72 l46
-46 217 41 c119 22 218 42 220 44 2 2 2 14 0 27 l-3 25 -208 -39 -208 -39 -44
40 c-91 84 -212 120 -335 100z"/>
<path d="M11740 1361 l0 -629 85 -68 c77 -63 97 -84 78 -84 -3 0 -38 26 -77
58 -39 32 -77 61 -84 66 -12 7 -35 -9 -137 -98 l-40 -35 178 -1 177 0 0 671 0
672 37 -6 c130 -22 289 -177 380 -374 69 -149 73 -183 74 -597 0 -204 3 -364
7 -356 4 9 41 48 83 88 l77 72 7 143 c13 278 -43 593 -132 741 -74 122 -270
281 -399 325 -62 21 -196 41 -271 41 l-43 0 0 -629z"/>
<path d="M12978 1921 c-78 -50 -143 -160 -155 -263 l-6 -53 21 25 c12 14 31
54 42 90 23 76 73 141 131 170 21 11 43 29 49 40 9 17 8 20 -13 20 -13 0 -44
-13 -69 -29z"/>
<path d="M22015 1779 c-291 -20 -545 -38 -564 -38 l-33 -1 6 -52 c19 -152 37
-452 42 -683 3 -143 6 -276 8 -295 l2 -35 597 -3 597 -2 0 177 c0 98 -3 209
-7 247 l-6 68 -106 -6 c-58 -3 -260 -9 -448 -12 l-342 -7 -36 36 c-30 30 -35
42 -35 80 0 57 35 102 88 116 20 5 213 12 427 16 215 3 403 8 418 11 28 6 28
8 23 52 -3 26 -11 120 -17 210 l-12 162 -36 -1 c-20 -1 -274 -19 -566 -40z"/>
<path d="M51 1663 c-6 -76 -14 -166 -17 -199 -6 -62 -6 -62 22 -67 16 -3 205
-9 419 -12 215 -4 407 -11 427 -16 85 -22 119 -130 59 -189 -16 -16 -41 -32
-56 -36 -15 -4 -219 -2 -453 4 -235 5 -429 8 -432 5 -2 -2 -6 -112 -8 -244
l-4 -239 595 0 c558 0 595 1 599 18 2 9 5 94 6 187 3 206 19 497 37 700 7 82
12 151 11 153 -5 4 -1086 72 -1152 72 l-41 0 -12 -137z"/>
<path d="M12865 1491 c130 -135 333 -234 545 -265 44 -7 44 -6 -25 24 -38 17
-108 45 -155 62 -112 40 -247 110 -322 167 -100 76 -106 77 -43 12z"/>
<path d="M17940 1404 c-84 -28 -254 -110 -434 -208 -166 -90 -257 -119 -371
-119 -65 0 -107 6 -150 21 -33 11 -61 19 -63 17 -7 -7 123 -86 176 -105 47
-18 72 -21 142 -18 106 5 170 34 350 157 217 147 266 179 352 226 118 66 118
70 -2 29z"/>
<path d="M16900 1029 c0 -2 23 -83 50 -179 28 -96 50 -178 50 -181 0 -3 -28
-9 -62 -13 -35 -3 -114 -19 -177 -35 l-113 -28 -43 91 c-23 50 -50 113 -60
139 -10 26 -22 50 -26 53 -12 7 46 -155 88 -248 32 -70 37 -76 57 -68 33 12
222 48 309 59 43 5 80 11 82 13 3 2 -30 92 -71 199 -68 174 -84 212 -84 198z"/>
<path d="M13145 746 c-31 -13 -27 -19 18 -30 24 -6 27 -4 27 19 0 28 -3 29
-45 11z"/>
<path d="M8383 648 l-42 -73 79 -3 c44 -1 118 -1 165 0 l86 3 -117 70 c-65 39
-120 71 -123 73 -4 1 -25 -30 -48 -70z"/>
<path d="M9226 649 c-26 -39 -45 -73 -43 -75 2 -3 73 -3 158 -2 l154 3 -103
73 c-56 39 -106 72 -111 72 -4 0 -29 -32 -55 -71z"/>
<path d="M9932 640 l-74 -70 166 0 c91 0 166 2 166 4 0 7 -168 136 -177 136
-4 -1 -41 -32 -81 -70z"/>
<path d="M13058 677 c-32 -13 -37 -27 -9 -27 11 0 26 -3 35 -6 12 -5 16 0 16
20 0 28 -2 29 -42 13z"/>
<path d="M12870 598 c-32 -28 -33 -30 -10 -24 14 3 37 6 52 6 24 0 26 3 19 22
-11 32 -22 31 -61 -4z"/>
<path d="M13031 584 l33 -35 18 23 c9 13 15 24 14 25 -1 2 -24 7 -50 12 l-48
9 33 -34z"/>
<path d="M4510 497 c0 -108 0 -108 23 -101 40 12 87 33 87 39 0 3 -25 42 -55
88 l-55 82 0 -108z"/>
<path d="M4653 513 c4 -38 7 -87 7 -110 l0 -43 51 20 c28 10 54 21 57 24 5 6
-107 176 -116 176 -3 0 -2 -30 1 -67z"/>
<path d="M12787 549 c-14 -50 -9 -69 19 -69 22 0 24 3 18 23 -3 12 -12 33 -19
46 l-12 24 -6 -24z"/>
<path d="M12929 527 c34 -36 35 -36 49 -16 12 18 13 23 1 30 -8 5 -22 9 -31 9
-9 0 -25 3 -35 7 -11 4 -6 -7 16 -30z"/>
<path d="M13010 480 c0 -4 15 -19 33 -33 33 -25 33 -25 46 -5 7 11 10 22 7 25
-9 9 -86 21 -86 13z"/>
</g>
</svg>
